<?xml version="1.0" standalone="no"?>
<!DOCTYPE svg PUBLIC "-//W3C//DTD SVG 20010904//EN"
 "http://www.w3.org/TR/2001/REC-SVG-20010904/DTD/svg10.dtd">
<svg version="1.0" xmlns="http://www.w3.org/2000/svg"
 width="1024.000000pt" height="519.000000pt" viewBox="0 0 1024.000000 519.000000"
 preserveAspectRatio="xMidYMid meet">

<g transform="translate(0.000000,519.000000) scale(0.100000,-0.100000)"
fill="#000000" stroke="none">
<path d="M0 2595 l0 -2595 5120 0 5120 0 0 2595 0 2595 -5120 0 -5120 0 0
-2595z m4455 2210 l41 -130 159 -5 c151 -5 160 -6 163 -25 2 -14 -12 -32 -50
-60 -29 -22 -85 -66 -125 -97 l-73 -58 50 -141 c27 -78 47 -145 44 -150 -11
-19 -39 -6 -154 71 -66 44 -124 80 -129 80 -6 0 -65 -36 -131 -81 -75 -51
-126 -79 -136 -75 -18 7 -21 -5 36 164 32 98 41 138 34 150 -6 8 -62 50 -124
93 -63 43 -116 81 -117 86 -8 25 21 32 171 40 l159 8 38 110 c55 156 56 157
81 153 19 -3 28 -22 63 -133z m-1195 -31 c70 -38 113 -90 170 -209 58 -119 98
-240 145 -430 36 -151 85 -396 85 -431 0 -19 7 -22 73 -28 173 -16 499 -99
652 -167 115 -51 190 -103 237 -164 101 -133 65 -281 -113 -469 -109 -115
-324 -300 -397 -342 -2 -1 33 -92 78 -203 140 -350 194 -565 194 -776 1 -130
-12 -185 -62 -256 -65 -91 -155 -120 -308 -101 -54 7 -98 11 -100 10 -1 -2 8
-149 22 -328 27 -371 29 -461 12 -478 -9 -9 21 -12 138 -12 158 0 194 -9 181
-44 -6 -15 -113 -16 -1389 -14 l-1383 3 0 25 c0 25 0 25 108 28 99 2 108 4
101 20 -17 37 -16 114 2 160 26 69 120 161 201 196 4 2 45 378 41 381 -2 3
-180 -6 -394 -20 -214 -14 -396 -25 -405 -25 -43 0 -48 18 -74 244 -14 120
-25 225 -25 232 0 8 -10 14 -22 14 -72 1 -162 82 -199 179 -27 71 -38 253 -19
329 15 66 62 136 101 152 16 7 34 20 38 29 5 9 1 80 -10 166 -27 216 -36 420
-19 440 10 13 45 15 220 15 114 0 241 3 284 6 l76 7 -100 103 c-73 75 -109
121 -130 166 -102 216 58 426 391 512 151 39 353 66 493 66 146 0 137 -6 182
120 66 185 173 395 288 565 74 110 232 271 302 308 121 64 241 71 334 21z
m2331 -1330 c64 -30 119 -82 142 -133 43 -98 13 -239 -61 -286 -17 -11 -31
-22 -32 -25 0 -4 15 -12 34 -18 46 -17 102 -81 116 -134 16 -56 9 -153 -14
-199 -24 -50 -79 -104 -135 -131 -44 -22 -60 -23 -303 -26 l-258 -4 0 492 0
492 233 -4 c211 -3 236 -5 278 -24z m1789 -467 l0 -494 -87 3 -88 2 1 41 c0
22 -1 41 -3 41 -2 0 -15 -13 -28 -29 -60 -70 -211 -95 -313 -51 -64 27 -134
101 -170 178 -24 51 -27 68 -27 172 0 103 3 121 26 171 33 70 96 134 157 161
104 47 240 30 320 -37 l42 -37 0 186 0 186 85 0 85 0 0 -493z m1970 293 l0
-90 80 0 80 0 0 -75 0 -75 -80 0 -80 0 0 -159 c0 -88 4 -171 9 -184 11 -28 56
-47 112 -47 l39 0 0 -80 0 -80 -97 0 c-149 1 -208 37 -232 141 -6 24 -11 126
-11 226 l0 182 -51 3 -52 3 -1 72 -1 72 54 3 54 3 -2 88 -2 87 90 0 91 0 0
-90z m-1406 -95 c22 -9 52 -30 68 -47 l28 -30 0 41 0 41 90 0 90 0 0 -352 c0
-363 -4 -409 -43 -484 -20 -39 -112 -122 -143 -130 -48 -12 -22 -19 56 -16
l80 4 0 -496 0 -496 -91 0 -92 0 5 45 6 45 -43 -39 c-54 -50 -136 -76 -209
-67 -109 13 -201 83 -255 196 -24 50 -26 66 -26 175 0 139 14 182 86 260 69
75 106 90 224 90 92 0 104 -2 148 -28 27 -16 51 -35 54 -43 16 -43 23 6 23
171 l0 185 -27 -7 c-16 -5 -77 -8 -138 -8 -101 0 -115 3 -169 29 -32 16 -76
46 -98 68 l-39 39 56 45 55 45 35 -26 c19 -15 55 -33 81 -41 159 -48 284 41
284 200 l0 55 -32 -29 c-57 -53 -94 -65 -193 -65 -70 0 -100 5 -135 21 -60 28
-123 93 -157 161 -35 73 -43 192 -19 276 30 105 136 206 236 227 60 12 156 5
204 -15z m867 -7 c30 -14 71 -39 90 -56 67 -59 124 -201 117 -296 l-2 -36
-264 0 -263 0 7 -22 c22 -73 69 -118 143 -138 75 -20 150 4 207 67 l31 34 62
-42 c33 -24 61 -46 61 -50 0 -4 -21 -30 -47 -56 -174 -178 -483 -132 -590 86
-26 51 -28 66 -28 171 0 107 2 119 29 174 47 96 126 162 221 187 57 15 167 4
226 -23z m-2731 -191 c-1 -289 15 -335 119 -345 66 -6 123 25 151 83 18 37 20
62 20 253 l0 212 90 0 90 0 0 -348 0 -347 -90 0 -90 0 0 38 0 39 -32 -28 c-54
-45 -106 -64 -179 -64 -114 0 -181 36 -227 123 l-27 52 -3 267 -3 267 88 3
c48 2 89 2 91 1 2 0 3 -93 2 -206z m1270 -789 c0 -5 0 -226 0 -493 l0 -485
-85 0 -85 0 0 46 0 47 -44 -41 c-108 -100 -275 -91 -386 21 -183 183 -128 539
96 620 104 37 238 15 307 -50 l27 -27 0 188 0 187 85 -3 c47 -2 85 -6 85 -10z
m-1778 -14 c58 -19 123 -74 150 -128 16 -31 22 -58 21 -111 0 -83 -24 -139
-77 -181 l-35 -28 37 -16 c136 -61 166 -269 57 -398 -67 -80 -167 -102 -467
-102 l-178 0 0 490 0 490 223 0 c176 0 233 -3 269 -16z m498 -494 c0 -254 4
-276 60 -305 42 -22 116 -19 155 5 62 38 69 69 69 310 l1 215 88 3 87 3 0
-351 0 -350 -91 0 -91 0 4 40 c2 22 1 40 -2 40 -4 0 -19 -13 -35 -30 -86 -90
-270 -86 -356 7 -62 67 -64 74 -67 371 l-3 272 90 0 91 0 0 -230z m2359 213
c16 -30 161 -430 161 -444 0 -33 23 20 85 201 37 107 74 210 81 228 l13 32 92
0 c69 0 90 -3 86 -12 -155 -403 -314 -803 -332 -838 -30 -58 -92 -116 -142
-129 -21 -6 -66 -11 -100 -11 l-63 0 0 74 0 74 55 4 c67 6 106 38 129 105 l15
44 -134 341 c-74 188 -135 343 -135 344 0 2 40 4 90 4 75 0 91 -3 99 -17z"/>
<path d="M3057 4730 c-166 -42 -375 -274 -536 -595 -47 -94 -121 -264 -121
-278 0 -1 33 -2 73 -3 114 -2 205 -51 166 -90 -13 -12 -22 -11 -67 6 -98 37
-198 22 -209 -32 -3 -16 -10 -31 -16 -35 -6 -3 -80 -7 -166 -9 -247 -3 -533
-58 -676 -128 -77 -38 -154 -109 -181 -165 -55 -116 -17 -211 150 -374 l111
-108 197 3 c186 3 198 2 217 -17 17 -18 23 -55 46 -305 36 -398 37 -400 49
-400 6 0 32 6 57 14 72 22 170 29 217 17 23 -7 83 -40 132 -74 262 -179 391
-233 585 -244 150 -8 268 25 368 101 39 30 51 35 63 25 38 -32 -5 -80 -121
-136 -250 -119 -556 -60 -875 167 -63 45 -125 86 -138 91 -66 26 -271 -6 -314
-48 -15 -15 -17 -25 -9 -45 l9 -25 72 24 c86 29 145 28 145 -2 0 -12 -9 -22
-25 -27 -14 -3 -59 -17 -100 -30 -72 -22 -75 -25 -78 -56 -4 -43 12 -48 88
-23 76 25 118 27 127 5 9 -25 -16 -39 -100 -58 -72 -17 -78 -20 -73 -40 3 -11
6 -30 6 -40 0 -17 6 -18 80 -13 79 5 81 5 128 -29 198 -144 292 -192 472 -244
187 -54 407 -64 569 -25 186 45 392 212 446 364 23 66 30 76 51 76 43 0 22
-94 -43 -192 -48 -72 -128 -153 -199 -200 l-55 -36 28 -29 c33 -34 151 -117
211 -147 101 -51 305 -80 373 -53 43 17 97 80 116 136 39 112 11 363 -71 621
-19 61 -71 200 -116 310 -44 109 -80 206 -80 215 0 8 26 33 58 54 171 119 377
311 452 423 139 208 51 342 -306 466 -128 45 -380 103 -514 118 -58 7 -110 17
-116 23 -6 6 -19 63 -28 126 -56 381 -178 761 -287 893 -56 68 -153 99 -242
77z m62 -454 c6 -7 18 -40 27 -72 8 -32 16 -59 18 -61 1 -2 29 -8 62 -14 101
-20 107 -48 24 -112 l-49 -38 -3 -86 c-2 -52 -7 -88 -14 -90 -6 -2 -35 18 -64
44 l-53 47 -68 -37 c-38 -20 -72 -37 -78 -37 -21 0 -18 32 10 90 16 34 29 66
29 72 0 5 -23 35 -50 66 -28 31 -49 63 -48 72 3 11 22 16 83 20 88 6 84 2 125
103 20 49 30 56 49 33z m56 -515 c47 -21 68 -43 63 -68 -5 -26 -33 -27 -66 -3
-41 30 -102 36 -157 15 -25 -9 -52 -14 -60 -11 -19 7 -19 40 -1 55 41 34 160
40 221 12z m-609 -178 c57 -19 130 -89 158 -151 l19 -42 57 63 c79 86 143 119
241 125 67 4 83 1 138 -23 77 -35 130 -93 162 -178 21 -53 24 -80 24 -187 0
-123 0 -126 -37 -202 -48 -100 -111 -167 -190 -203 -152 -69 -305 -9 -386 150
l-28 56 -32 -45 c-74 -103 -174 -158 -287 -158 -162 0 -262 108 -288 312 -12
104 6 211 53 307 36 73 120 154 182 176 58 21 154 21 214 0z m882 -688 c50
-21 112 -83 112 -112 0 -37 -29 -41 -58 -8 -17 20 -28 26 -37 19 -7 -5 -37
-29 -66 -53 -30 -24 -78 -57 -106 -73 l-53 -30 0 -52 c0 -82 -24 -137 -83
-194 -86 -80 -232 -122 -430 -122 -186 0 -326 49 -378 134 -17 25 -19 44 -16
101 3 39 8 79 11 90 5 17 -4 26 -54 53 -49 27 -60 38 -60 58 0 39 24 38 94 -4
74 -44 177 -75 308 -92 104 -14 288 0 419 31 106 25 248 94 317 153 l54 46
-34 0 c-32 0 -58 14 -58 31 0 16 33 39 56 39 14 0 41 -7 62 -15z"/>
<path d="M2352 3519 c-56 -28 -116 -98 -143 -168 -33 -84 -38 -236 -10 -315
38 -110 108 -173 203 -183 101 -10 205 59 263 175 37 74 53 241 30 318 -45
154 -211 238 -343 173z m178 -289 c29 -29 27 -94 -5 -125 -53 -54 -113 -14
-102 68 9 69 65 99 107 57z"/>
<path d="M2943 3494 c-64 -31 -117 -89 -151 -163 -34 -74 -42 -210 -18 -296
29 -97 87 -170 163 -202 46 -19 131 -16 179 6 116 53 205 227 191 376 -22 235
-192 365 -364 279z m167 -294 c29 -29 27 -94 -5 -125 -49 -50 -105 -19 -105
58 0 27 7 45 25 62 29 30 58 32 85 5z"/>
<path d="M3125 2594 c-22 -8 -77 -22 -123 -31 -66 -13 -81 -19 -78 -32 3 -9 8
-49 12 -89 4 -40 10 -75 15 -77 14 -10 121 37 156 68 42 37 72 98 73 145 0 36
0 36 -55 16z"/>
<path d="M2404 2578 c-3 -5 -8 -35 -11 -66 -5 -52 -3 -61 21 -89 16 -19 50
-40 82 -52 90 -34 90 -34 100 67 4 48 8 92 9 97 0 6 -11 11 -25 13 -14 2 -58
12 -98 22 -44 11 -74 14 -78 8z"/>
<path d="M2667 2533 c-3 -5 -6 -51 -8 -103 l-4 -95 108 2 c60 0 111 3 113 6 3
3 2 48 -2 101 l-7 96 -98 0 c-54 0 -100 -3 -102 -7z"/>
<path d="M1570 2849 c-102 -5 -277 -12 -390 -16 l-205 -8 2 -80 c1 -44 12
-170 24 -280 l22 -200 58 -53 c70 -64 101 -135 98 -221 -2 -31 2 -66 9 -78 16
-29 15 -96 -2 -138 -8 -18 -12 -36 -9 -39 12 -12 -10 -79 -37 -110 l-30 -33
20 -184 c29 -265 24 -245 63 -242 17 1 219 14 447 28 502 31 499 31 494 53 -2
9 -18 132 -35 272 -17 140 -34 273 -36 295 -3 21 -15 52 -26 67 -15 21 -21 42
-20 81 1 28 -3 57 -7 62 -4 6 -11 28 -14 51 -6 31 -3 45 11 63 16 20 18 33 11
95 -4 39 -17 172 -28 296 -11 124 -23 249 -26 278 l-5 52 -102 -2 c-56 0 -185
-5 -287 -9z m38 -481 c6 -7 12 -26 14 -42 2 -24 10 -32 43 -43 63 -22 72 -36
52 -78 -19 -41 -25 -42 -69 -15 -18 11 -44 20 -58 20 -61 0 -94 -65 -47 -94
12 -7 48 -16 79 -19 71 -7 110 -29 138 -80 45 -79 9 -178 -76 -209 -30 -11
-33 -16 -36 -57 -3 -39 -6 -46 -26 -49 -33 -5 -52 15 -52 54 0 29 -4 35 -27
40 -54 11 -115 36 -120 50 -5 14 14 81 26 88 4 3 24 -7 45 -21 68 -49 176 -28
176 32 0 33 -18 43 -92 51 -37 4 -81 15 -98 26 -67 40 -81 170 -24 229 15 16
39 32 51 35 19 5 23 13 23 43 0 21 3 41 7 44 11 12 60 8 71 -5z"/>
<path d="M927 2189 c-9 -5 -27 -29 -40 -52 -20 -37 -22 -56 -22 -172 0 -115 3
-136 24 -182 44 -99 139 -156 196 -119 28 18 31 36 13 66 -10 16 -9 23 11 44
12 13 25 42 28 64 5 35 2 44 -23 67 -28 26 -28 26 -10 56 24 40 15 101 -24
162 -42 66 -105 94 -153 66z"/>
<path d="M2146 1668 c3 -29 17 -147 31 -263 l25 -209 -22 -18 c-15 -13 -39
-18 -79 -18 -31 0 -62 -4 -69 -9 -9 -5 -21 -78 -38 -217 -13 -115 -24 -210
-24 -212 0 -1 -21 -12 -46 -23 -70 -29 -119 -74 -148 -131 -30 -59 -32 -94
-12 -143 l15 -35 428 0 c406 0 430 1 460 20 17 10 36 27 41 37 13 23 95 660
88 678 -3 8 -17 15 -33 17 -33 4 -46 44 -18 54 19 7 218 -14 252 -27 16 -6 25
-23 37 -76 16 -74 41 -260 51 -388 l6 -80 -46 -54 c-72 -84 -93 -139 -63 -169
9 -9 121 -12 444 -12 l433 0 21 27 c21 26 22 35 17 143 -6 126 -47 674 -50
675 -1 1 -33 19 -72 39 -81 44 -206 135 -231 169 -18 23 -18 23 -64 6 -131
-50 -368 -64 -545 -33 -102 18 -246 62 -341 105 -68 30 -200 113 -268 168 -36
28 -45 31 -112 31 l-73 0 5 -52z"/>
<path d="M2860 1105 c0 -66 -84 -674 -96 -693 l-14 -22 78 0 79 0 0 43 c0 54
24 105 80 167 l45 50 -16 143 c-9 78 -23 181 -32 228 -15 84 -17 87 -46 93
-51 10 -78 7 -78 -9z"/>
<path d="M5262 3189 l3 -124 100 -3 c115 -4 166 8 194 45 25 31 28 100 7 142
-23 43 -59 54 -189 59 l-118 4 3 -123z"/>
<path d="M5268 2904 c-5 -4 -8 -63 -8 -131 l0 -123 123 0 c97 0 130 4 163 19
94 43 95 169 1 218 -34 17 -265 32 -279 17z"/>
<path d="M6969 3030 c-45 -13 -79 -41 -105 -87 -23 -38 -26 -52 -22 -117 4
-90 37 -147 101 -177 113 -51 227 8 257 131 38 158 -87 294 -231 250z"/>
<path d="M7797 3025 c-72 -25 -127 -101 -127 -175 0 -109 113 -205 219 -185
102 19 151 76 151 174 0 72 -16 115 -56 153 -52 49 -114 60 -187 33z"/>
<path d="M7728 1740 c-125 -66 -122 -283 6 -361 37 -23 124 -26 164 -5 135 70
136 302 1 371 -40 21 -126 18 -171 -5z"/>
<path d="M8610 3044 c-55 -24 -110 -86 -110 -124 0 -6 59 -10 174 -10 165 0
174 1 169 19 -9 33 -66 93 -107 112 -49 22 -80 23 -126 3z"/>
<path d="M6925 1748 c-68 -37 -105 -103 -105 -185 1 -126 72 -203 186 -203
102 0 174 83 174 200 0 82 -39 153 -102 186 -32 17 -125 18 -153 2z"/>
<path d="M5260 1911 l0 -121 115 0 c67 0 125 5 140 12 35 16 55 57 55 112 0
36 -6 52 -29 78 l-29 33 -126 3 -126 4 0 -121z"/>
<path d="M5260 1504 l0 -126 141 4 141 3 35 39 c33 35 35 42 31 87 -9 95 -56
119 -228 119 l-120 0 0 -126z"/>
</g>
</svg>
